<?xml version="1.0" encoding="UTF-8"?>
<svg width="18px" height="32px" viewBox="0 0 18 32" version="1.1" xmlns="http://www.w3.org/2000/svg" xmlns:xlink="http://www.w3.org/1999/xlink">
    <!-- Generator: Sketch 52.5 (67469) - http://www.bohemiancoding.com/sketch -->
    <title>left-arrow (1)</title>
    <desc>Created with Sketch.</desc>
    <g id="Page-1" stroke="none" stroke-width="1" fill="none" fill-rule="evenodd">
        <g id="API-news-/-no-image" transform="translate(-1328.000000, -578.000000)" fill="#4A4A4A">
            <g id="Group-3" transform="translate(567.000000, 578.000000)">
                <g id="left-arrow-(1)" transform="translate(770.000000, 16.000000) scale(-1, 1) translate(-770.000000, -16.000000) translate(761.000000, 0.000000)">
                    <path d="M15.9742765,31.6689655 C16.2057878,31.8896552 16.4951768,32 16.8135048,32 C17.1318328,32 17.4212219,31.8896552 17.6527331,31.6689655 C18.1157556,31.2275862 18.1157556,30.5103448 17.6527331,30.0689655 L2.89389068,16 L17.6527331,1.93103448 C18.1157556,1.48965517 18.1157556,0.772413793 17.6527331,0.331034483 C17.1897106,-0.110344828 16.437299,-0.110344828 15.9742765,0.331034483 L0.347266881,15.2 C-0.115755627,15.6413793 -0.115755627,16.3586207 0.347266881,16.8 L15.9742765,31.6689655 Z" id="Path"></path>
                </g>
            </g>
        </g>
    </g>
</svg>