<?xml version="1.0" encoding="UTF-8"?>
<svg width="20px" height="20px" viewBox="0 0 20 20" version="1.1" xmlns="http://www.w3.org/2000/svg" xmlns:xlink="http://www.w3.org/1999/xlink">
    <!-- Generator: Sketch 52.5 (67469) - http://www.bohemiancoding.com/sketch -->
    <title>magnifying-glass</title>
    <desc>Created with Sketch.</desc>
    <g id="Page-1" stroke="none" stroke-width="1" fill="none" fill-rule="evenodd">
        <g id="API-news-/-no-image" transform="translate(-1260.000000, -286.000000)" fill="#4A4A4A" fill-rule="nonzero">
            <g id="magnifying-glass" transform="translate(1258.000000, 284.000000)">
                <g id="Search">
                    <path d="M21.755102,20.5795918 L16.9469388,15.7714286 C18.1387755,14.3183673 18.8571429,12.4571429 18.8571429,10.4285714 C18.8571429,5.7755102 15.0816327,2 10.4285714,2 C5.77142857,2 2,5.7755102 2,10.4285714 C2,15.0816327 5.77142857,18.8571429 10.4285714,18.8571429 C12.4571429,18.8571429 14.3142857,18.1428571 15.7673469,16.9510204 L20.5755102,21.755102 C20.9020408,22.0816327 21.4285714,22.0816327 21.755102,21.755102 C22.0816327,21.4326531 22.0816327,20.9020408 21.755102,20.5795918 Z M10.4285714,17.1795918 C6.70204082,17.1795918 3.67346939,14.1510204 3.67346939,10.4285714 C3.67346939,6.70612245 6.70204082,3.67346939 10.4285714,3.67346939 C14.1510204,3.67346939 17.1836735,6.70612245 17.1836735,10.4285714 C17.1836735,14.1510204 14.1510204,17.1795918 10.4285714,17.1795918 Z" id="Shape"></path>
                </g>
            </g>
        </g>
    </g>
</svg>